<svg width="25" height="30" viewBox="0 0 25 30" fill="none" xmlns="http://www.w3.org/2000/svg">
<path d="M22.418 0.349999H3.104C2.466 0.349999 1.92467 0.581999 1.48 1.046C1.03533 1.49067 0.813 2.032 0.813 2.67V27.03C0.813 27.668 1.03533 28.2093 1.48 28.654C1.92467 29.118 2.466 29.35 3.104 29.35H21.867C22.505 29.35 23.0463 29.118 23.491 28.654C23.955 28.2093 24.187 27.668 24.187 27.03V2.119C24.187 1.61633 24.013 1.20067 23.665 0.872C23.3363 0.523999 22.9207 0.349999 22.418 0.349999ZM22.215 16.474V27.03C22.215 27.1267 22.1763 27.204 22.099 27.262C22.041 27.3393 21.9637 27.378 21.867 27.378H3.104C3.00733 27.378 2.93 27.3393 2.872 27.262C2.814 27.204 2.785 27.1267 2.785 27.03V2.67C2.785 2.57333 2.814 2.496 2.872 2.438C2.93 2.36066 3.00733 2.322 3.104 2.322H17.285C17.4977 2.322 17.7297 2.38967 17.981 2.525C18.2517 2.641 18.4547 2.77633 18.59 2.931L19.054 3.453C19.4407 3.917 19.7307 4.25533 19.924 4.468C20.4653 5.08667 20.8617 5.55067 21.113 5.86L21.635 6.469C21.7897 6.62367 21.925 6.86533 22.041 7.194C22.157 7.50333 22.215 7.76433 22.215 7.977V16.474ZM19.489 16.445C19.199 16.155 18.561 16.01 17.575 16.01H17.459C16.8983 16.01 16.183 16.0583 15.313 16.155C14.8683 15.9037 14.5203 15.6717 14.269 15.459C13.4377 14.6857 12.7997 13.6997 12.355 12.501L12.442 12.211C12.5 11.979 12.5483 11.5247 12.587 10.848C12.6257 10.3067 12.645 9.96833 12.645 9.833V9.717C12.6837 9.601 12.7223 9.456 12.761 9.282C12.7803 9.05 12.7803 8.86633 12.761 8.731C12.761 8.69233 12.7417 8.615 12.703 8.499L12.616 8.296C12.558 8.14133 12.4613 8.01567 12.326 7.919C12.1907 7.82233 12.036 7.774 11.862 7.774H11.659C11.4463 7.774 11.253 7.832 11.079 7.948C10.905 8.04467 10.7987 8.18 10.76 8.354C10.6247 8.83733 10.615 9.47533 10.731 10.268C10.8083 10.906 10.992 11.776 11.282 12.878L11.166 13.197C10.818 14.0477 10.3927 14.9177 9.89 15.807L9.861 15.894C9.339 16.9187 8.95233 17.6437 8.701 18.069L8.324 18.243L7.541 18.678C6.903 19.0453 6.39067 19.432 6.004 19.838C5.61733 20.244 5.38533 20.621 5.308 20.969C5.25 21.259 5.32733 21.4813 5.54 21.636L5.946 21.839C6.13933 21.897 6.28433 21.926 6.381 21.926C6.82567 21.926 7.31867 21.636 7.86 21.056C8.40133 20.476 9.02967 19.5673 9.745 18.33C11.4463 17.7693 13.1573 17.3633 14.878 17.112C15.4967 17.46 16.154 17.75 16.85 17.982C17.546 18.1947 18.1357 18.301 18.619 18.301C18.7737 18.301 18.9283 18.2913 19.083 18.272C19.2377 18.2333 19.3923 18.1173 19.547 17.924C19.5857 17.8273 19.634 17.6533 19.692 17.402V16.764C19.6727 16.6673 19.605 16.561 19.489 16.445ZM6.265 21.143C6.381 20.8917 6.584 20.592 6.874 20.244C7.18333 19.838 7.55067 19.4707 7.976 19.142C8.034 19.084 8.08233 19.0453 8.121 19.026C7.367 20.1667 6.74833 20.8723 6.265 21.143ZM11.804 8.47C11.804 8.412 11.8137 8.36367 11.833 8.325C11.891 8.42167 11.9877 8.586 12.123 8.818C12.2003 9.01133 12.239 9.32067 12.239 9.746V9.833L11.949 11.022C11.7943 10.3453 11.717 9.76533 11.717 9.282C11.717 9.03067 11.746 8.76 11.804 8.47ZM10.209 17.431C10.325 17.199 10.5183 16.851 10.789 16.387C11.2337 15.4977 11.5817 14.7243 11.833 14.067C12.3357 14.9563 12.9253 15.6813 13.602 16.242C13.6407 16.2807 13.718 16.3387 13.834 16.416C12.384 16.7253 11.1757 17.0637 10.209 17.431ZM19.17 17.431C19.17 17.431 19.1507 17.431 19.112 17.431C19.0347 17.4503 18.967 17.46 18.909 17.46C18.3677 17.46 17.6523 17.2763 16.763 16.909C17.6137 16.8317 18.2807 16.8607 18.764 16.996C19.0153 17.0733 19.1893 17.1603 19.286 17.257C19.3053 17.257 19.315 17.257 19.315 17.257C19.2957 17.2957 19.2473 17.3537 19.17 17.431Z" fill="white"/>
</svg>
