<svg width="25" height="30" viewBox="0 0 25 30" fill="none" xmlns="http://www.w3.org/2000/svg">
<path d="M22.418 0.349999H3.104C2.466 0.349999 1.92467 0.581999 1.48 1.046C1.03533 1.49067 0.813 2.032 0.813 2.67V27.03C0.813 27.668 1.03533 28.2093 1.48 28.654C1.92467 29.118 2.466 29.35 3.104 29.35H21.867C22.505 29.35 23.0463 29.118 23.491 28.654C23.955 28.2093 24.187 27.668 24.187 27.03V2.119C24.187 1.61633 24.013 1.20067 23.665 0.872C23.3363 0.523999 22.9207 0.349999 22.418 0.349999ZM22.215 16.474V27.03C22.215 27.1267 22.1763 27.204 22.099 27.262C22.041 27.3393 21.9637 27.378 21.867 27.378H3.104C3.00733 27.378 2.93 27.3393 2.872 27.262C2.814 27.204 2.785 27.1267 2.785 27.03V2.67C2.785 2.57333 2.814 2.496 2.872 2.438C2.93 2.36066 3.00733 2.322 3.104 2.322H17.285C17.4977 2.322 17.7297 2.38967 17.981 2.525C18.2517 2.641 18.4547 2.77633 18.59 2.931L19.054 3.453C19.4407 3.917 19.7307 4.25533 19.924 4.468C20.4653 5.08667 20.8617 5.55067 21.113 5.86L21.635 6.469C21.7897 6.62367 21.925 6.86533 22.041 7.194C22.157 7.50333 22.215 7.76433 22.215 7.977V16.474ZM15.139 16.242L13.602 9.369H11.369L9.861 16.242L8.614 9.369H5.975L8.324 20.331H11.05L12.471 14.067L13.95 20.331H16.676L19.025 9.369H16.386L15.139 16.242Z" fill="white"/>
</svg>
